<svg width="150" height="47" viewBox="0 0 150 47" fill="none" xmlns="http://www.w3.org/2000/svg">
<path d="M13.7903 30.8141C10.2903 30.8141 7.56031 29.9472 5.60031 28.2135C3.66365 26.4797 2.69531 24.0044 2.69531 20.7875V8.50481H8.36531V20.5995C8.36531 24.5266 10.1853 26.4901 13.8253 26.4901C15.5987 26.4901 16.952 26.0201 17.8853 25.0801C18.8187 24.1192 19.2853 22.6257 19.2853 20.5995V8.50481H24.8853V20.7875C24.8853 24.0044 23.9053 26.4797 21.9453 28.2135C20.0087 29.9472 17.2903 30.8141 13.7903 30.8141ZM41.5483 13.3301C43.8817 13.3301 45.76 13.9568 47.1833 15.2101C48.63 16.4635 49.3533 18.3226 49.3533 20.7875V30.4381H43.8933V21.5395C43.8933 20.2026 43.5667 19.2104 42.9133 18.5628C42.26 17.8944 41.315 17.5601 40.0783 17.5601C38.7017 17.5601 37.605 17.9466 36.7883 18.7195C35.9717 19.4715 35.5633 20.5995 35.5633 22.1035V30.4381H30.1033V13.5808H35.3183V15.5548C36.0417 14.8446 36.94 14.3015 38.0133 13.9255C39.0867 13.5286 40.265 13.3301 41.5483 13.3301ZM66.4473 29.6235C65.9108 29.9786 65.2458 30.2501 64.4523 30.4381C63.6823 30.6052 62.8658 30.6888 62.0023 30.6888C59.7623 30.6888 58.0243 30.177 56.7873 29.1535C55.5743 28.1299 54.9673 26.6259 54.9673 24.6415V17.7168H52.0623V13.9568H54.9673V9.85214H60.4273V13.9568H65.1173V17.7168H60.4273V24.5788C60.4273 25.289 60.6258 25.8426 61.0223 26.2395C61.4423 26.6155 62.0258 26.8035 62.7723 26.8035C63.6358 26.8035 64.3708 26.5946 64.9773 26.1768L66.4473 29.6235ZM69.5123 13.5808H74.9723V30.4381H69.5123V13.5808ZM72.2423 11.2308C71.2393 11.2308 70.4223 10.9697 69.7923 10.4475C69.1623 9.92524 68.8473 9.27771 68.8473 8.50481C68.8473 7.73191 69.1623 7.08438 69.7923 6.56214C70.4223 6.0399 71.2393 5.77881 72.2423 5.77881C73.2458 5.77881 74.0623 6.02948 74.6923 6.53081C75.3223 7.03214 75.6373 7.65881 75.6373 8.41081C75.6373 9.22548 75.3223 9.90438 74.6923 10.4475C74.0623 10.9697 73.2458 11.2308 72.2423 11.2308ZM92.1848 29.6235C91.6483 29.9786 90.9833 30.2501 90.1898 30.4381C89.4198 30.6052 88.6033 30.6888 87.7398 30.6888C85.4998 30.6888 83.7613 30.177 82.5248 29.1535C81.3113 28.1299 80.7048 26.6259 80.7048 24.6415V17.7168H77.7998V13.9568H80.7048V9.85214H86.1648V13.9568H90.8548V17.7168H86.1648V24.5788C86.1648 25.289 86.3633 25.8426 86.7598 26.2395C87.1798 26.6155 87.7633 26.8035 88.5098 26.8035C89.3733 26.8035 90.1083 26.5946 90.7148 26.1768L92.1848 29.6235ZM95.2498 7.18881H100.71V30.4381H95.2498V7.18881ZM124.222 22.0721C124.222 22.1348 124.187 22.5735 124.117 23.3881H109.872C110.129 24.4326 110.735 25.2577 111.692 25.8635C112.649 26.4692 113.839 26.7721 115.262 26.7721C116.242 26.7721 117.105 26.6468 117.852 26.3961C118.622 26.1246 119.334 25.7068 119.987 25.1428L122.892 27.9628C121.119 29.7801 118.529 30.6888 115.122 30.6888C112.999 30.6888 111.12 30.3232 109.487 29.5921C107.854 28.8401 106.594 27.8061 105.707 26.4901C104.82 25.1741 104.377 23.6806 104.377 22.0095C104.377 20.3592 104.809 18.8761 105.672 17.5601C106.559 16.2232 107.76 15.1892 109.277 14.4581C110.817 13.7061 112.532 13.3301 114.422 13.3301C116.265 13.3301 117.934 13.6852 119.427 14.3955C120.92 15.1057 122.087 16.1292 122.927 17.4661C123.79 18.7821 124.222 20.3175 124.222 22.0721ZM114.457 17.0275C113.22 17.0275 112.182 17.3408 111.342 17.9675C110.502 18.5941 109.989 19.4506 109.802 20.5368H119.077C118.89 19.4715 118.377 18.6255 117.537 17.9988C116.697 17.3512 115.67 17.0275 114.457 17.0275ZM147.037 7.18881V30.4381H141.822V28.4955C140.469 29.9577 138.509 30.6888 135.942 30.6888C134.169 30.6888 132.559 30.3337 131.112 29.6235C129.689 28.9132 128.569 27.9001 127.752 26.5841C126.935 25.2681 126.527 23.7432 126.527 22.0095C126.527 20.2757 126.935 18.7508 127.752 17.4348C128.569 16.1188 129.689 15.1057 131.112 14.3955C132.559 13.6852 134.169 13.3301 135.942 13.3301C138.345 13.3301 140.224 14.009 141.577 15.3668V7.18881H147.037ZM136.887 26.6781C138.264 26.6781 139.407 26.2604 140.317 25.4248C141.227 24.5684 141.682 23.4299 141.682 22.0095C141.682 20.589 141.227 19.461 140.317 18.6255C139.407 17.769 138.264 17.3408 136.887 17.3408C135.487 17.3408 134.332 17.769 133.422 18.6255C132.512 19.461 132.057 20.589 132.057 22.0095C132.057 23.4299 132.512 24.5684 133.422 25.4248C134.332 26.2604 135.487 26.6781 136.887 26.6781Z" fill="#F8F8F8"/>
<path d="M30.3422 37H31.7499L28.4078 45H27L30.3422 37ZM33.5665 37H34.9742L31.6321 45H30.2243L33.5665 37ZM46.8724 39.5817L44.8975 44.1507H43.3783L42.1529 41.3142L40.8869 44.1507H39.3677L37.4029 39.5817H38.8917L40.1779 42.673L41.5148 39.5817H42.8517L44.148 42.673L45.4748 39.5817H46.8724ZM52.7959 41.8832C52.7959 41.9002 52.7858 42.0191 52.7655 42.2399H48.6435C48.7178 42.523 48.8934 42.7466 49.1702 42.9108C49.447 43.075 49.7913 43.1571 50.2032 43.1571C50.4868 43.1571 50.7366 43.1231 50.9527 43.0552C51.1755 42.9816 51.3814 42.8684 51.5705 42.7155L52.4111 43.4798C51.8979 43.9724 51.1485 44.2187 50.1627 44.2187C49.5483 44.2187 49.0048 44.1196 48.5321 43.9214C48.0595 43.7176 47.6949 43.4374 47.4383 43.0807C47.1818 42.724 47.0535 42.3192 47.0535 41.8662C47.0535 41.419 47.1784 41.017 47.4282 40.6603C47.6848 40.2979 48.0325 40.0177 48.4714 39.8195C48.917 39.6157 49.4132 39.5138 49.9601 39.5138C50.4935 39.5138 50.9763 39.61 51.4084 39.8025C51.8405 39.995 52.1781 40.2725 52.4212 40.6348C52.671 40.9915 52.7959 41.4076 52.7959 41.8832ZM49.9703 40.5159C49.6124 40.5159 49.312 40.6008 49.0689 40.7707C48.8258 40.9406 48.6773 41.1727 48.6233 41.4671H51.3071C51.2531 41.1783 51.1046 40.949 50.8615 40.7792C50.6185 40.6037 50.3214 40.5159 49.9703 40.5159ZM57.0683 39.5138C57.5747 39.5138 58.0338 39.6129 58.4457 39.811C58.8643 40.0035 59.1918 40.2781 59.4281 40.6348C59.6644 40.9858 59.7826 41.3963 59.7826 41.8662C59.7826 42.3362 59.6644 42.7495 59.4281 43.1062C59.1918 43.4572 58.8643 43.7318 58.4457 43.9299C58.0338 44.1224 57.5747 44.2187 57.0683 44.2187C56.3189 44.2187 55.7483 44.0205 55.3567 43.6242V44.1507H53.8478V37.8493H55.4276V40.0658C55.826 39.6978 56.3729 39.5138 57.0683 39.5138ZM56.7949 43.1316C57.2 43.1316 57.5308 43.0184 57.7874 42.7919C58.0507 42.5598 58.1824 42.2512 58.1824 41.8662C58.1824 41.4812 58.0507 41.1755 57.7874 40.949C57.5308 40.7169 57.2 40.6008 56.7949 40.6008C56.3898 40.6008 56.0555 40.7169 55.7922 40.949C55.5356 41.1755 55.4074 41.4812 55.4074 41.8662C55.4074 42.2512 55.5356 42.5598 55.7922 42.7919C56.0555 43.0184 56.3898 43.1316 56.7949 43.1316ZM65.5414 44.2187C65.089 44.2187 64.6468 44.1734 64.2147 44.0828C63.7826 43.9866 63.4382 43.8677 63.1816 43.7261L63.7083 42.7749C63.9514 42.9052 64.2451 43.0127 64.5894 43.0977C64.9338 43.1769 65.2713 43.2166 65.6022 43.2166C66.2706 43.2166 66.6048 43.0779 66.6048 42.8004C66.6048 42.6702 66.5137 42.5768 66.3314 42.5202C66.1491 42.4636 65.8689 42.4154 65.4908 42.3758C65.0452 42.3192 64.6772 42.2541 64.3869 42.1805C64.0965 42.1069 63.8433 41.9766 63.6273 41.7898C63.418 41.603 63.3133 41.3369 63.3133 40.9915C63.3133 40.7028 63.4112 40.448 63.607 40.2272C63.8096 40.0007 64.0999 39.8252 64.478 39.7006C64.8629 39.5761 65.3152 39.5138 65.8351 39.5138C66.22 39.5138 66.6015 39.5506 66.9796 39.6242C67.3644 39.6921 67.6818 39.7884 67.9316 39.913L67.4049 40.8556C66.9256 40.6292 66.4023 40.5159 65.8351 40.5159C65.4975 40.5159 65.2443 40.5556 65.0755 40.6348C64.9067 40.7141 64.8223 40.816 64.8223 40.9406C64.8223 41.0821 64.9135 41.1812 65.0958 41.2378C65.2781 41.2944 65.5684 41.3482 65.9668 41.3992C66.4124 41.4614 66.777 41.5294 67.0606 41.603C67.3442 41.6709 67.5906 41.7983 67.7999 41.9851C68.0092 42.172 68.1139 42.4324 68.1139 42.7665C68.1139 43.0495 68.0126 43.3015 67.8101 43.5223C67.6075 43.7431 67.3104 43.9158 66.9188 44.0403C66.5339 44.1592 66.0748 44.2187 65.5414 44.2187ZM71.6818 44.2187C71.1079 44.2187 70.5913 44.1196 70.1322 43.9214C69.6798 43.7176 69.3254 43.4374 69.0688 43.0807C68.8122 42.724 68.6839 42.3192 68.6839 41.8662C68.6839 41.4133 68.8122 41.0085 69.0688 40.6518C69.3254 40.2951 69.6798 40.0177 70.1322 39.8195C70.5913 39.6157 71.1079 39.5138 71.6818 39.5138C72.2557 39.5138 72.7688 39.6157 73.2212 39.8195C73.6736 40.0177 74.028 40.2951 74.2846 40.6518C74.5412 41.0085 74.6695 41.4133 74.6695 41.8662C74.6695 42.3192 74.5412 42.724 74.2846 43.0807C74.028 43.4374 73.6736 43.7176 73.2212 43.9214C72.7688 44.1196 72.2557 44.2187 71.6818 44.2187ZM71.6818 43.1316C72.0869 43.1316 72.4177 43.0184 72.6743 42.7919C72.9376 42.5598 73.0693 42.2512 73.0693 41.8662C73.0693 41.4812 72.9376 41.1755 72.6743 40.949C72.4177 40.7169 72.0869 40.6008 71.6818 40.6008C71.2766 40.6008 70.9424 40.7169 70.6791 40.949C70.4158 41.1755 70.2841 41.4812 70.2841 41.8662C70.2841 42.2512 70.4158 42.5598 70.6791 42.7919C70.9424 43.0184 71.2766 43.1316 71.6818 43.1316ZM75.7252 37.8493H77.3051V44.1507H75.7252V37.8493ZM84.261 39.5817V44.1507H82.762V43.6072C82.5527 43.8054 82.3029 43.9582 82.0126 44.0658C81.7223 44.1677 81.4083 44.2187 81.0707 44.2187C80.355 44.2187 79.7879 44.046 79.3692 43.7006C78.9506 43.3553 78.7413 42.8429 78.7413 42.1635V39.5817H80.3213V41.9682C80.3213 42.7042 80.6892 43.0722 81.4252 43.0722C81.8033 43.0722 82.1071 42.9703 82.3367 42.7665C82.5662 42.557 82.681 42.2484 82.681 41.8408V39.5817H84.261ZM89.239 43.9299C89.0837 44.0262 88.8913 44.0998 88.6617 44.1507C88.4389 44.196 88.2026 44.2187 87.9528 44.2187C87.3046 44.2187 86.8016 44.08 86.4437 43.8025C86.0926 43.5251 85.9171 43.1175 85.9171 42.5796V40.7028H85.0765V39.6837H85.9171V38.5711H87.497V39.6837H88.8542V40.7028H87.497V42.5626C87.497 42.7551 87.5544 42.9052 87.6692 43.0127C87.7907 43.1146 87.9595 43.1656 88.1756 43.1656C88.4254 43.1656 88.6381 43.109 88.8136 42.9958L89.239 43.9299ZM90.1259 39.5817H91.7059V44.1507H90.1259V39.5817ZM90.9159 38.9448C90.6256 38.9448 90.3892 38.874 90.2069 38.7325C90.0246 38.5909 89.9335 38.4154 89.9335 38.2059C89.9335 37.9965 90.0246 37.8209 90.2069 37.6794C90.3892 37.5379 90.6256 37.4671 90.9159 37.4671C91.2062 37.4671 91.4425 37.535 91.6248 37.6709C91.8071 37.8068 91.8983 37.9766 91.8983 38.1805C91.8983 38.4013 91.8071 38.5853 91.6248 38.7325C91.4425 38.874 91.2062 38.9448 90.9159 38.9448ZM95.7647 44.2187C95.1908 44.2187 94.6743 44.1196 94.2151 43.9214C93.7628 43.7176 93.4083 43.4374 93.1517 43.0807C92.8952 42.724 92.7669 42.3192 92.7669 41.8662C92.7669 41.4133 92.8952 41.0085 93.1517 40.6518C93.4083 40.2951 93.7628 40.0177 94.2151 39.8195C94.6743 39.6157 95.1908 39.5138 95.7647 39.5138C96.3386 39.5138 96.8517 39.6157 97.3041 39.8195C97.7565 40.0177 98.111 40.2951 98.3675 40.6518C98.6241 41.0085 98.7524 41.4133 98.7524 41.8662C98.7524 42.3192 98.6241 42.724 98.3675 43.0807C98.111 43.4374 97.7565 43.7176 97.3041 43.9214C96.8517 44.1196 96.3386 44.2187 95.7647 44.2187ZM95.7647 43.1316C96.1698 43.1316 96.5006 43.0184 96.7572 42.7919C97.0205 42.5598 97.1522 42.2512 97.1522 41.8662C97.1522 41.4812 97.0205 41.1755 96.7572 40.949C96.5006 40.7169 96.1698 40.6008 95.7647 40.6008C95.3596 40.6008 95.0254 40.7169 94.762 40.949C94.4987 41.1755 94.3671 41.4812 94.3671 41.8662C94.3671 42.2512 94.4987 42.5598 94.762 42.7919C95.0254 43.0184 95.3596 43.1316 95.7647 43.1316ZM103.12 39.5138C103.796 39.5138 104.339 39.6837 104.751 40.0234C105.17 40.3631 105.379 40.8669 105.379 41.535V44.1507H103.799V41.7389C103.799 41.3765 103.704 41.1076 103.515 40.9321C103.326 40.7509 103.053 40.6603 102.695 40.6603C102.297 40.6603 101.979 40.765 101.743 40.9745C101.507 41.1783 101.389 41.4841 101.389 41.8917V44.1507H99.8086V39.5817H101.318V40.1168C101.527 39.9243 101.787 39.7771 102.097 39.6752C102.408 39.5676 102.749 39.5138 103.12 39.5138ZM108.644 44.2187C108.192 44.2187 107.75 44.1734 107.318 44.0828C106.885 43.9866 106.541 43.8677 106.285 43.7261L106.811 42.7749C107.054 42.9052 107.348 43.0127 107.692 43.0977C108.037 43.1769 108.374 43.2166 108.705 43.2166C109.374 43.2166 109.708 43.0779 109.708 42.8004C109.708 42.6702 109.617 42.5768 109.434 42.5202C109.252 42.4636 108.972 42.4154 108.594 42.3758C108.148 42.3192 107.78 42.2541 107.49 42.1805C107.199 42.1069 106.946 41.9766 106.73 41.7898C106.521 41.603 106.416 41.3369 106.416 40.9915C106.416 40.7028 106.514 40.448 106.71 40.2272C106.912 40.0007 107.203 39.8252 107.581 39.7006C107.966 39.5761 108.418 39.5138 108.938 39.5138C109.323 39.5138 109.704 39.5506 110.082 39.6242C110.467 39.6921 110.785 39.7884 111.035 39.913L110.508 40.8556C110.028 40.6292 109.505 40.5159 108.938 40.5159C108.6 40.5159 108.347 40.5556 108.178 40.6348C108.01 40.7141 107.925 40.816 107.925 40.9406C107.925 41.0821 108.016 41.1812 108.199 41.2378C108.381 41.2944 108.671 41.3482 109.07 41.3992C109.515 41.4614 109.88 41.5294 110.164 41.603C110.447 41.6709 110.694 41.7983 110.903 41.9851C111.112 42.172 111.217 42.4324 111.217 42.7665C111.217 43.0495 111.116 43.3015 110.913 43.5223C110.71 43.7431 110.413 43.9158 110.022 44.0403C109.637 44.1592 109.178 44.2187 108.644 44.2187ZM116.893 44.2187C116.44 44.2187 115.998 44.1734 115.566 44.0828C115.134 43.9866 114.79 43.8677 114.533 43.7261L115.06 42.7749C115.303 42.9052 115.596 43.0127 115.941 43.0977C116.285 43.1769 116.623 43.2166 116.953 43.2166C117.622 43.2166 117.956 43.0779 117.956 42.8004C117.956 42.6702 117.865 42.5768 117.683 42.5202C117.5 42.4636 117.22 42.4154 116.842 42.3758C116.396 42.3192 116.028 42.2541 115.738 42.1805C115.448 42.1069 115.195 41.9766 114.979 41.7898C114.769 41.603 114.665 41.3369 114.665 40.9915C114.665 40.7028 114.763 40.448 114.958 40.2272C115.161 40.0007 115.451 39.8252 115.829 39.7006C116.214 39.5761 116.667 39.5138 117.186 39.5138C117.571 39.5138 117.953 39.5506 118.331 39.6242C118.716 39.6921 119.033 39.7884 119.283 39.913L118.756 40.8556C118.277 40.6292 117.754 40.5159 117.186 40.5159C116.849 40.5159 116.596 40.5556 116.427 40.6348C116.258 40.7141 116.174 40.816 116.174 40.9406C116.174 41.0821 116.265 41.1812 116.447 41.2378C116.629 41.2944 116.92 41.3482 117.318 41.3992C117.764 41.4614 118.128 41.5294 118.412 41.603C118.695 41.6709 118.942 41.7983 119.151 41.9851C119.361 42.172 119.465 42.4324 119.465 42.7665C119.465 43.0495 119.364 43.3015 119.161 43.5223C118.959 43.7431 118.662 43.9158 118.27 44.0403C117.885 44.1592 117.426 44.2187 116.893 44.2187ZM123.954 43.9299C123.799 44.0262 123.606 44.0998 123.377 44.1507C123.154 44.196 122.918 44.2187 122.668 44.2187C122.02 44.2187 121.517 44.08 121.159 43.8025C120.808 43.5251 120.632 43.1175 120.632 42.5796V40.7028H119.792V39.6837H120.632V38.5711H122.212V39.6837H123.569V40.7028H122.212V42.5626C122.212 42.7551 122.27 42.9052 122.384 43.0127C122.506 43.1146 122.675 43.1656 122.891 43.1656C123.141 43.1656 123.353 43.109 123.529 42.9958L123.954 43.9299ZM130.33 39.5817V44.1507H128.831V43.6072C128.622 43.8054 128.372 43.9582 128.082 44.0658C127.792 44.1677 127.478 44.2187 127.14 44.2187C126.424 44.2187 125.857 44.046 125.439 43.7006C125.02 43.3553 124.811 42.8429 124.811 42.1635V39.5817H126.391V41.9682C126.391 42.7042 126.759 43.0722 127.495 43.0722C127.873 43.0722 128.177 42.9703 128.406 42.7665C128.636 42.557 128.75 42.2484 128.75 41.8408V39.5817H130.33ZM137.344 37.8493V44.1507H135.835V43.6242C135.443 44.0205 134.876 44.2187 134.134 44.2187C133.62 44.2187 133.155 44.1224 132.736 43.9299C132.324 43.7374 132 43.4628 131.764 43.1062C131.527 42.7495 131.409 42.3362 131.409 41.8662C131.409 41.3963 131.527 40.983 131.764 40.6263C132 40.2696 132.324 39.995 132.736 39.8025C133.155 39.61 133.62 39.5138 134.134 39.5138C134.829 39.5138 135.373 39.6978 135.764 40.0658V37.8493H137.344ZM134.407 43.1316C134.805 43.1316 135.136 43.0184 135.4 42.7919C135.663 42.5598 135.795 42.2512 135.795 41.8662C135.795 41.4812 135.663 41.1755 135.4 40.949C135.136 40.7169 134.805 40.6008 134.407 40.6008C134.002 40.6008 133.668 40.7169 133.404 40.949C133.141 41.1755 133.009 41.4812 133.009 41.8662C133.009 42.2512 133.141 42.5598 133.404 42.7919C133.668 43.0184 134.002 43.1316 134.407 43.1316ZM138.806 39.5817H140.386V44.1507H138.806V39.5817ZM139.596 38.9448C139.306 38.9448 139.07 38.874 138.887 38.7325C138.705 38.5909 138.614 38.4154 138.614 38.2059C138.614 37.9965 138.705 37.8209 138.887 37.6794C139.07 37.5379 139.306 37.4671 139.596 37.4671C139.887 37.4671 140.123 37.535 140.305 37.6709C140.488 37.8068 140.579 37.9766 140.579 38.1805C140.579 38.4013 140.488 38.5853 140.305 38.7325C140.123 38.874 139.887 38.9448 139.596 38.9448ZM144.446 44.2187C143.872 44.2187 143.355 44.1196 142.896 43.9214C142.444 43.7176 142.089 43.4374 141.833 43.0807C141.576 42.724 141.448 42.3192 141.448 41.8662C141.448 41.4133 141.576 41.0085 141.833 40.6518C142.089 40.2951 142.444 40.0177 142.896 39.8195C143.355 39.6157 143.872 39.5138 144.446 39.5138C145.02 39.5138 145.533 39.6157 145.985 39.8195C146.437 40.0177 146.792 40.2951 147.048 40.6518C147.305 41.0085 147.433 41.4133 147.433 41.8662C147.433 42.3192 147.305 42.724 147.048 43.0807C146.792 43.4374 146.437 43.7176 145.985 43.9214C145.533 44.1196 145.02 44.2187 144.446 44.2187ZM144.446 43.1316C144.851 43.1316 145.182 43.0184 145.438 42.7919C145.701 42.5598 145.833 42.2512 145.833 41.8662C145.833 41.4812 145.701 41.1755 145.438 40.949C145.182 40.7169 144.851 40.6008 144.446 40.6008C144.041 40.6008 143.706 40.7169 143.443 40.949C143.18 41.1755 143.048 41.4812 143.048 41.8662C143.048 42.2512 143.18 42.5598 143.443 42.7919C143.706 43.0184 144.041 43.1316 144.446 43.1316ZM149.018 44.2187C148.741 44.2187 148.508 44.1394 148.319 43.9809C148.13 43.8224 148.035 43.6242 148.035 43.3864C148.035 43.143 148.13 42.9476 148.319 42.8004C148.508 42.6476 148.741 42.5711 149.018 42.5711C149.294 42.5711 149.527 42.6476 149.716 42.8004C149.905 42.9476 150 43.143 150 43.3864C150 43.6242 149.905 43.8224 149.716 43.9809C149.527 44.1394 149.294 44.2187 149.018 44.2187Z" fill="#F8F8F8"/>
</svg>
