<svg width="166" height="52" viewBox="0 0 166 52" fill="none" xmlns="http://www.w3.org/2000/svg">
<g clip-path="url(#clip0)">
<path d="M15.2568 34.0922C11.3844 34.0922 8.364 33.1331 6.19549 31.2149C4.05279 29.2967 2.98145 26.558 2.98145 22.9989V9.40956H9.25464V22.7909C9.25464 27.1358 11.2683 29.3082 15.2955 29.3082C17.2575 29.3082 18.7548 28.7882 19.7874 27.7482C20.82 26.6851 21.3363 25.0327 21.3363 22.7909V9.40956H27.5321V22.9989C27.5321 26.558 26.4478 29.2967 24.2793 31.2149C22.1366 33.1331 19.1291 34.0922 15.2568 34.0922ZM45.9677 14.7482C48.5493 14.7482 50.6274 15.4416 52.2022 16.8282C53.8028 18.2149 54.6031 20.2718 54.6031 22.9989V33.6762H48.5622V23.8309C48.5622 22.3518 48.2008 21.254 47.4779 20.5376C46.7551 19.798 45.7096 19.4282 44.3414 19.4282C42.8183 19.4282 41.6049 19.8558 40.7014 20.7109C39.7978 21.5429 39.346 22.7909 39.346 24.4549V33.6762H33.3052V15.0256H39.075V17.2096C39.8753 16.4238 40.8691 15.8229 42.0567 15.4069C43.2442 14.9678 44.5479 14.7482 45.9677 14.7482ZM73.5156 32.7749C72.922 33.1678 72.1862 33.4682 71.3083 33.6762C70.4564 33.8611 69.5531 33.9536 68.5977 33.9536C66.1194 33.9536 64.1965 33.3874 62.8279 32.2549C61.4859 31.1224 60.8143 29.4584 60.8143 27.2629V19.6016H57.6002V15.4416H60.8143V10.9002H66.8551V15.4416H72.0441V19.6016H66.8551V27.1936C66.8551 27.9794 67.0748 28.5918 67.5134 29.0309C67.9781 29.4469 68.6237 29.6549 69.4496 29.6549C70.405 29.6549 71.2182 29.4238 71.8892 28.9616L73.5156 32.7749ZM76.9066 15.0256H82.9475V33.6762H76.9066V15.0256ZM79.927 12.4256C78.8173 12.4256 77.9134 12.1367 77.2164 11.5589C76.5194 10.9811 76.1709 10.2647 76.1709 9.40956C76.1709 8.55443 76.5194 7.83802 77.2164 7.26022C77.9134 6.68243 78.8173 6.39355 79.927 6.39355C81.0373 6.39355 81.9407 6.67089 82.6377 7.22556C83.3347 7.78022 83.6832 8.47356 83.6832 9.30556C83.6832 10.2069 83.3347 10.958 82.6377 11.5589C81.9407 12.1367 81.0373 12.4256 79.927 12.4256ZM101.991 32.7749C101.398 33.1678 100.662 33.4682 99.7839 33.6762C98.9319 33.8611 98.0286 33.9536 97.0732 33.9536C94.5949 33.9536 92.6715 33.3874 91.3034 32.2549C89.9608 31.1224 89.2898 29.4584 89.2898 27.2629V19.6016H86.0758V15.4416H89.2898V10.9002H95.3307V15.4416H100.52V19.6016H95.3307V27.1936C95.3307 27.9794 95.5503 28.5918 95.989 29.0309C96.4536 29.4469 97.0992 29.6549 97.9251 29.6549C98.8805 29.6549 99.6937 29.4238 100.365 28.9616L101.991 32.7749ZM105.382 7.95355H111.423V33.6762H105.382V7.95355ZM137.437 24.4202C137.437 24.4896 137.398 24.9749 137.321 25.8762H121.56C121.844 27.0318 122.515 27.9447 123.574 28.6149C124.632 29.2851 125.949 29.6202 127.524 29.6202C128.608 29.6202 129.563 29.4816 130.389 29.2042C131.241 28.9038 132.028 28.4416 132.751 27.8176L135.965 30.9376C134.003 32.9482 131.138 33.9536 127.369 33.9536C125.019 33.9536 122.941 33.5491 121.134 32.7402C119.327 31.9082 117.933 30.7642 116.952 29.3082C115.971 27.8522 115.481 26.1998 115.481 24.3509C115.481 22.5251 115.958 20.8842 116.913 19.4282C117.894 17.9491 119.224 16.8051 120.902 15.9962C122.606 15.1642 124.503 14.7482 126.594 14.7482C128.633 14.7482 130.479 15.1411 132.132 15.9269C133.784 16.7127 135.075 17.8451 136.004 19.3242C136.959 20.7802 137.437 22.4789 137.437 24.4202ZM126.633 18.8389C125.264 18.8389 124.116 19.1856 123.187 19.8789C122.257 20.5722 121.689 21.5198 121.483 22.7216H131.744C131.538 21.5429 130.97 20.6069 130.041 19.9136C129.111 19.1971 127.975 18.8389 126.633 18.8389ZM162.679 7.95355V33.6762H156.909V31.5269C155.412 33.1447 153.243 33.9536 150.404 33.9536C148.441 33.9536 146.66 33.5607 145.06 32.7749C143.485 31.9891 142.246 30.8682 141.342 29.4122C140.438 27.9562 139.987 26.2691 139.987 24.3509C139.987 22.4327 140.438 20.7456 141.342 19.2896C142.246 17.8336 143.485 16.7127 145.06 15.9269C146.66 15.1411 148.441 14.7482 150.404 14.7482C153.062 14.7482 155.141 15.4994 156.638 17.0016V7.95355H162.679ZM151.449 29.5162C152.972 29.5162 154.237 29.054 155.244 28.1296C156.251 27.182 156.754 25.9224 156.754 24.3509C156.754 22.7794 156.251 21.5314 155.244 20.6069C154.237 19.6594 152.972 19.1856 151.449 19.1856C149.9 19.1856 148.622 19.6594 147.616 20.6069C146.609 21.5314 146.105 22.7794 146.105 24.3509C146.105 25.9224 146.609 27.182 147.616 28.1296C148.622 29.054 149.9 29.5162 151.449 29.5162Z" fill="#F8F8F8"/>
<path d="M33.5698 40.9363H35.1273L31.4296 49.7873H29.8721L33.5698 40.9363ZM37.1371 40.9363H38.6946L34.9969 49.7873H33.4394L37.1371 40.9363ZM51.8586 43.7927L49.6736 48.8477H47.9928L46.6369 45.7095L45.2363 48.8477H43.5555L41.3817 43.7927H43.0289L44.4519 47.2128L45.931 43.7927H47.4101L48.8444 47.2128L50.3123 43.7927H51.8586ZM58.4122 46.339C58.4122 46.3578 58.401 46.4893 58.3786 46.7336H53.8181C53.9003 47.0468 54.0945 47.2943 54.4008 47.4759C54.7071 47.6576 55.088 47.7484 55.5437 47.7484C55.8575 47.7484 56.1339 47.7108 56.3729 47.6357C56.6194 47.5542 56.8472 47.4289 57.0564 47.2598L57.9864 48.1055C57.4187 48.6504 56.5895 48.9229 55.4989 48.9229C54.8191 48.9229 54.2178 48.8133 53.6948 48.594C53.1719 48.3685 52.7686 48.0585 52.4847 47.6638C52.2008 47.2692 52.0589 46.8213 52.0589 46.3202C52.0589 45.8253 52.1971 45.3806 52.4735 44.986C52.7573 44.5851 53.1421 44.275 53.6276 44.0558C54.1206 43.8303 54.6697 43.7175 55.2748 43.7175C55.8649 43.7175 56.399 43.824 56.8771 44.037C57.3552 44.2499 57.7287 44.5569 57.9977 44.9578C58.274 45.3524 58.4122 45.8128 58.4122 46.339ZM55.286 44.8262C54.8901 44.8262 54.5576 44.9202 54.2887 45.1081C54.0198 45.296 53.8555 45.5529 53.7957 45.8786H56.7651C56.7053 45.5591 56.541 45.3054 56.2721 45.1175C56.0031 44.9233 55.6744 44.8262 55.286 44.8262ZM63.1391 43.7175C63.6994 43.7175 64.2074 43.8271 64.6631 44.0464C65.1262 44.2593 65.4885 44.5631 65.75 44.9578C66.0114 45.3462 66.1421 45.8003 66.1421 46.3202C66.1421 46.8401 66.0114 47.2974 65.75 47.692C65.4885 48.0804 65.1262 48.3842 64.6631 48.6034C64.2074 48.8164 63.6994 48.9229 63.1391 48.9229C62.31 48.9229 61.6787 48.7037 61.2455 48.2652V48.8477H59.576V41.8759H61.3239V44.3282C61.7646 43.9211 62.3697 43.7175 63.1391 43.7175ZM62.8366 47.7202C63.2848 47.7202 63.6508 47.5949 63.9347 47.3444C64.226 47.0875 64.3717 46.7462 64.3717 46.3202C64.3717 45.8943 64.226 45.556 63.9347 45.3054C63.6508 45.0486 63.2848 44.9202 62.8366 44.9202C62.3884 44.9202 62.0186 45.0486 61.7273 45.3054C61.4434 45.556 61.3015 45.8943 61.3015 46.3202C61.3015 46.7462 61.4434 47.0875 61.7273 47.3444C62.0186 47.5949 62.3884 47.7202 62.8366 47.7202ZM72.5136 48.9229C72.0131 48.9229 71.5238 48.8728 71.0458 48.7726C70.5677 48.6661 70.1867 48.5345 69.9028 48.3779L70.4855 47.3256C70.7544 47.4697 71.0794 47.5887 71.4604 47.6826C71.8413 47.7703 72.2148 47.8142 72.5809 47.8142C73.3204 47.8142 73.6902 47.6607 73.6902 47.3538C73.6902 47.2097 73.5893 47.1063 73.3876 47.0437C73.186 46.9811 72.8759 46.9278 72.4576 46.884C71.9646 46.8213 71.5575 46.7493 71.2362 46.6679C70.915 46.5864 70.6349 46.4424 70.3959 46.2356C70.1643 46.0289 70.0485 45.7345 70.0485 45.3524C70.0485 45.033 70.1568 44.7511 70.3734 44.5068C70.5975 44.2562 70.9188 44.062 71.3371 43.9242C71.7629 43.7864 72.2634 43.7175 72.8386 43.7175C73.2644 43.7175 73.6865 43.7582 74.1048 43.8397C74.5306 43.9148 74.8817 44.0213 75.1581 44.1591L74.5754 45.2021C74.045 44.9515 73.4661 44.8262 72.8386 44.8262C72.4651 44.8262 72.185 44.8701 71.9982 44.9578C71.8114 45.0455 71.7181 45.1582 71.7181 45.296C71.7181 45.4526 71.8189 45.5623 72.0206 45.6249C72.2223 45.6875 72.5435 45.747 72.9843 45.8034C73.4773 45.8723 73.8807 45.9475 74.1944 46.0289C74.5082 46.1041 74.7808 46.245 75.0124 46.4517C75.244 46.6585 75.3598 46.9466 75.3598 47.3162C75.3598 47.6294 75.2477 47.9081 75.0236 48.1524C74.7995 48.3967 74.4708 48.5878 74.0376 48.7256C73.6118 48.8571 73.1038 48.9229 72.5136 48.9229ZM79.3072 48.9229C78.6722 48.9229 78.1008 48.8133 77.5928 48.594C77.0923 48.3685 76.7001 48.0585 76.4163 47.6638C76.1324 47.2692 75.9905 46.8213 75.9905 46.3202C75.9905 45.8191 76.1324 45.3712 76.4163 44.9766C76.7001 44.5819 77.0923 44.275 77.5928 44.0558C78.1008 43.8303 78.6722 43.7175 79.3072 43.7175C79.9422 43.7175 80.5099 43.8303 81.0104 44.0558C81.5109 44.275 81.9031 44.5819 82.187 44.9766C82.4708 45.3712 82.6127 45.8191 82.6127 46.3202C82.6127 46.8213 82.4708 47.2692 82.187 47.6638C81.9031 48.0585 81.5109 48.3685 81.0104 48.594C80.5099 48.8133 79.9422 48.9229 79.3072 48.9229ZM79.3072 47.7202C79.7554 47.7202 80.1215 47.5949 80.4053 47.3444C80.6967 47.0875 80.8423 46.7462 80.8423 46.3202C80.8423 45.8943 80.6967 45.556 80.4053 45.3054C80.1215 45.0486 79.7554 44.9202 79.3072 44.9202C78.859 44.9202 78.4892 45.0486 78.1979 45.3054C77.9066 45.556 77.7609 45.8943 77.7609 46.3202C77.7609 46.7462 77.9066 47.0875 78.1979 47.3444C78.4892 47.5949 78.859 47.7202 79.3072 47.7202ZM83.7808 41.8759H85.5288V48.8477H83.7808V41.8759ZM93.2246 43.7927V48.8477H91.5662V48.2464C91.3347 48.4656 91.0583 48.6348 90.7371 48.7538C90.4159 48.8665 90.0685 48.9229 89.695 48.9229C88.9031 48.9229 88.2757 48.7319 87.8125 48.3498C87.3494 47.9676 87.1178 47.4007 87.1178 46.6491V43.7927H88.8658V46.433C88.8658 47.2473 89.2729 47.6544 90.0872 47.6544C90.5055 47.6544 90.8417 47.5417 91.0956 47.3162C91.3496 47.0844 91.4766 46.743 91.4766 46.292V43.7927H93.2246ZM98.7323 48.6034C98.5604 48.7099 98.3475 48.7914 98.0936 48.8477C97.847 48.8979 97.5856 48.9229 97.3092 48.9229C96.5921 48.9229 96.0355 48.7694 95.6396 48.4625C95.2512 48.1556 95.0569 47.7046 95.0569 47.1095V45.0329H94.1269V43.9054H95.0569V42.6745H96.805V43.9054H98.3065V45.0329H96.805V47.0907C96.805 47.3037 96.8685 47.4697 96.9954 47.5887C97.1299 47.7014 97.3167 47.7578 97.5557 47.7578C97.8321 47.7578 98.0674 47.6952 98.2616 47.5699L98.7323 48.6034ZM99.7135 43.7927H101.462V48.8477H99.7135V43.7927ZM100.588 43.088C100.266 43.088 100.005 43.0097 99.8032 42.8531C99.6015 42.6965 99.5006 42.5023 99.5006 42.2705C99.5006 42.0387 99.6015 41.8446 99.8032 41.688C100.005 41.5314 100.266 41.4531 100.588 41.4531C100.909 41.4531 101.17 41.5282 101.372 41.6786C101.574 41.8289 101.674 42.0168 101.674 42.2423C101.674 42.4866 101.574 42.6902 101.372 42.8531C101.17 43.0097 100.909 43.088 100.588 43.088ZM105.952 48.9229C105.317 48.9229 104.746 48.8133 104.238 48.594C103.737 48.3685 103.345 48.0585 103.061 47.6638C102.777 47.2692 102.635 46.8213 102.635 46.3202C102.635 45.8191 102.777 45.3712 103.061 44.9766C103.345 44.5819 103.737 44.275 104.238 44.0558C104.746 43.8303 105.317 43.7175 105.952 43.7175C106.587 43.7175 107.155 43.8303 107.655 44.0558C108.156 44.275 108.548 44.5819 108.832 44.9766C109.116 45.3712 109.258 45.8191 109.258 46.3202C109.258 46.8213 109.116 47.2692 108.832 47.6638C108.548 48.0585 108.156 48.3685 107.655 48.594C107.155 48.8133 106.587 48.9229 105.952 48.9229ZM105.952 47.7202C106.4 47.7202 106.766 47.5949 107.05 47.3444C107.342 47.0875 107.487 46.7462 107.487 46.3202C107.487 45.8943 107.342 45.556 107.05 45.3054C106.766 45.0486 106.4 44.9202 105.952 44.9202C105.504 44.9202 105.134 45.0486 104.843 45.3054C104.551 45.556 104.406 45.8943 104.406 46.3202C104.406 46.7462 104.551 47.0875 104.843 47.3444C105.134 47.5949 105.504 47.7202 105.952 47.7202ZM114.09 43.7175C114.837 43.7175 115.439 43.9054 115.894 44.2813C116.358 44.6571 116.589 45.2146 116.589 45.9538V48.8477H114.841V46.1793C114.841 45.7784 114.737 45.4808 114.527 45.2866C114.318 45.0862 114.016 44.986 113.62 44.986C113.179 44.986 112.828 45.1019 112.566 45.3336C112.305 45.5591 112.174 45.8974 112.174 46.3484V48.8477H110.426V43.7927H112.096V44.3846C112.327 44.1716 112.615 44.0088 112.959 43.896C113.302 43.777 113.679 43.7175 114.09 43.7175ZM120.202 48.9229C119.701 48.9229 119.212 48.8728 118.734 48.7726C118.256 48.6661 117.875 48.5345 117.591 48.3779L118.174 47.3256C118.443 47.4697 118.768 47.5887 119.149 47.6826C119.53 47.7703 119.903 47.8142 120.269 47.8142C121.009 47.8142 121.379 47.6607 121.379 47.3538C121.379 47.2097 121.278 47.1063 121.076 47.0437C120.874 46.9811 120.564 46.9278 120.146 46.884C119.653 46.8213 119.246 46.7493 118.925 46.6679C118.603 46.5864 118.323 46.4424 118.084 46.2356C117.853 46.0289 117.737 45.7345 117.737 45.3524C117.737 45.033 117.845 44.7511 118.062 44.5068C118.286 44.2562 118.607 44.062 119.025 43.9242C119.451 43.7864 119.952 43.7175 120.527 43.7175C120.953 43.7175 121.375 43.7582 121.793 43.8397C122.219 43.9148 122.57 44.0213 122.846 44.1591L122.264 45.2021C121.733 44.9515 121.154 44.8262 120.527 44.8262C120.153 44.8262 119.873 44.8701 119.687 44.9578C119.5 45.0455 119.406 45.1582 119.406 45.296C119.406 45.4526 119.507 45.5623 119.709 45.6249C119.911 45.6875 120.232 45.747 120.673 45.8034C121.166 45.8723 121.569 45.9475 121.883 46.0289C122.197 46.1041 122.469 46.245 122.701 46.4517C122.932 46.6585 123.048 46.9466 123.048 47.3162C123.048 47.6294 122.936 47.9081 122.712 48.1524C122.488 48.3967 122.159 48.5878 121.726 48.7256C121.3 48.8571 120.792 48.9229 120.202 48.9229ZM129.328 48.9229C128.827 48.9229 128.338 48.8728 127.86 48.7726C127.382 48.6661 127.001 48.5345 126.717 48.3779L127.3 47.3256C127.569 47.4697 127.894 47.5887 128.275 47.6826C128.656 47.7703 129.029 47.8142 129.395 47.8142C130.135 47.8142 130.504 47.6607 130.504 47.3538C130.504 47.2097 130.404 47.1063 130.202 47.0437C130 46.9811 129.69 46.9278 129.272 46.884C128.779 46.8213 128.372 46.7493 128.05 46.6679C127.729 46.5864 127.449 46.4424 127.21 46.2356C126.978 46.0289 126.863 45.7345 126.863 45.3524C126.863 45.033 126.971 44.7511 127.188 44.5068C127.412 44.2562 127.733 44.062 128.151 43.9242C128.577 43.7864 129.078 43.7175 129.653 43.7175C130.079 43.7175 130.501 43.7582 130.919 43.8397C131.345 43.9148 131.696 44.0213 131.972 44.1591L131.39 45.2021C130.859 44.9515 130.28 44.8262 129.653 44.8262C129.279 44.8262 128.999 44.8701 128.812 44.9578C128.626 45.0455 128.532 45.1582 128.532 45.296C128.532 45.4526 128.633 45.5623 128.835 45.6249C129.037 45.6875 129.358 45.747 129.798 45.8034C130.291 45.8723 130.695 45.9475 131.009 46.0289C131.322 46.1041 131.595 46.245 131.827 46.4517C132.058 46.6585 132.174 46.9466 132.174 47.3162C132.174 47.6294 132.062 47.9081 131.838 48.1524C131.614 48.3967 131.285 48.5878 130.852 48.7256C130.426 48.8571 129.918 48.9229 129.328 48.9229ZM137.141 48.6034C136.969 48.7099 136.756 48.7914 136.502 48.8477C136.255 48.8979 135.994 48.9229 135.717 48.9229C135 48.9229 134.444 48.7694 134.048 48.4625C133.659 48.1556 133.465 47.7046 133.465 47.1095V45.0329H132.535V43.9054H133.465V42.6745H135.213V43.9054H136.715V45.0329H135.213V47.0907C135.213 47.3037 135.277 47.4697 135.404 47.5887C135.538 47.7014 135.725 47.7578 135.964 47.7578C136.24 47.7578 136.476 47.6952 136.67 47.5699L137.141 48.6034ZM144.195 43.7927V48.8477H142.537V48.2464C142.305 48.4656 142.029 48.6348 141.707 48.7538C141.386 48.8665 141.039 48.9229 140.665 48.9229C139.874 48.9229 139.246 48.7319 138.783 48.3498C138.32 47.9676 138.088 47.4007 138.088 46.6491V43.7927H139.836V46.433C139.836 47.2473 140.243 47.6544 141.058 47.6544C141.476 47.6544 141.812 47.5417 142.066 47.3162C142.32 47.0844 142.447 46.743 142.447 46.292V43.7927H144.195ZM151.955 41.8759V48.8477H150.285V48.2652C149.852 48.7037 149.225 48.9229 148.403 48.9229C147.835 48.9229 147.32 48.8164 146.857 48.6034C146.401 48.3905 146.042 48.0867 145.781 47.692C145.519 47.2974 145.389 46.8401 145.389 46.3202C145.389 45.8003 145.519 45.343 145.781 44.9484C146.042 44.5538 146.401 44.2499 146.857 44.037C147.32 43.824 147.835 43.7175 148.403 43.7175C149.172 43.7175 149.774 43.9211 150.207 44.3282V41.8759H151.955ZM148.705 47.7202C149.146 47.7202 149.512 47.5949 149.804 47.3444C150.095 47.0875 150.241 46.7462 150.241 46.3202C150.241 45.8943 150.095 45.556 149.804 45.3054C149.512 45.0486 149.146 44.9202 148.705 44.9202C148.257 44.9202 147.887 45.0486 147.596 45.3054C147.305 45.556 147.159 45.8943 147.159 46.3202C147.159 46.7462 147.305 47.0875 147.596 47.3444C147.887 47.5949 148.257 47.7202 148.705 47.7202ZM153.573 43.7927H155.321V48.8477H153.573V43.7927ZM154.447 43.088C154.126 43.088 153.864 43.0097 153.662 42.8531C153.461 42.6965 153.36 42.5023 153.36 42.2705C153.36 42.0387 153.461 41.8446 153.662 41.688C153.864 41.5314 154.126 41.4531 154.447 41.4531C154.768 41.4531 155.029 41.5282 155.231 41.6786C155.433 41.8289 155.534 42.0168 155.534 42.2423C155.534 42.4866 155.433 42.6902 155.231 42.8531C155.029 43.0097 154.768 43.088 154.447 43.088ZM159.812 48.9229C159.177 48.9229 158.605 48.8133 158.098 48.594C157.597 48.3685 157.205 48.0585 156.921 47.6638C156.637 47.2692 156.495 46.8213 156.495 46.3202C156.495 45.8191 156.637 45.3712 156.921 44.9766C157.205 44.5819 157.597 44.275 158.098 44.0558C158.605 43.8303 159.177 43.7175 159.812 43.7175C160.447 43.7175 161.015 43.8303 161.515 44.0558C162.016 44.275 162.408 44.5819 162.692 44.9766C162.976 45.3712 163.117 45.8191 163.117 46.3202C163.117 46.8213 162.976 47.2692 162.692 47.6638C162.408 48.0585 162.016 48.3685 161.515 48.594C161.015 48.8133 160.447 48.9229 159.812 48.9229ZM159.812 47.7202C160.26 47.7202 160.626 47.5949 160.91 47.3444C161.201 47.0875 161.347 46.7462 161.347 46.3202C161.347 45.8943 161.201 45.556 160.91 45.3054C160.626 45.0486 160.26 44.9202 159.812 44.9202C159.364 44.9202 158.994 45.0486 158.703 45.3054C158.411 45.556 158.266 45.8943 158.266 46.3202C158.266 46.7462 158.411 47.0875 158.703 47.3444C158.994 47.5949 159.364 47.7202 159.812 47.7202ZM164.87 48.9229C164.564 48.9229 164.306 48.8352 164.097 48.6598C163.888 48.4844 163.783 48.2652 163.783 48.0021C163.783 47.7327 163.888 47.5166 164.097 47.3538C164.306 47.1846 164.564 47.1001 164.87 47.1001C165.177 47.1001 165.434 47.1846 165.643 47.3538C165.853 47.5166 165.957 47.7327 165.957 48.0021C165.957 48.2652 165.853 48.4844 165.643 48.6598C165.434 48.8352 165.177 48.9229 164.87 48.9229Z" fill="#F8F8F8"/>
</g>
<defs>
<clipPath id="clip0">
<rect width="165.957" height="52" fill="white"/>
</clipPath>
</defs>
</svg>
